<?xml version="1.0" encoding="UTF-8"?>
<svg id="Layer_2" data-name="Layer 2" xmlns="http://www.w3.org/2000/svg" viewBox="0 0 42.38 49.75">
  <defs>
    <style>
      .cls-1 {
        fill: none;
        stroke: #000;
        stroke-miterlimit: 2.61;
        stroke-width: .42px;
      }

      .cls-2 {
        fill: #e32219;
      }

      .cls-2, .cls-3, .cls-4 {
        stroke-width: 0px;
      }

      .cls-3 {
        fill: #000;
      }

      .cls-4 {
        fill: #fff;
      }
    </style>
  </defs>
  <g id="Calque_1" data-name="Calque 1">
    <g>
      <g>
        <path class="cls-4" d="M21.19.21c7.82,0,14.19,6.38,14.19,14.19s-6.38,14.19-14.19,14.19-14.19-6.38-14.19-14.19S13.37.21,21.19.21h0Z"/>
        <g>
          <path class="cls-3" d="M9.22,17.99c-.55.31-.77.96-.5,1.55.38.83,1.24,1.05,2,.71.76-.34,1.2-1.08.83-1.87-.28-.6-.88-.87-1.54-.66l.16.45c.4-.13.83,0,1.01.41.25.57-.2.99-.7,1.22-.51.23-1.1.15-1.35-.42-.17-.39-.02-.7.25-.91l-.16-.49h0ZM7.82,16.17c.1.86.89,1.35,1.71,1.22.82-.13,1.43-.7,1.31-1.56-.12-.86-.82-1.22-1.64-1.17-.82.05-1.48.64-1.38,1.51h0ZM8.24,16.1c-.07-.62.42-.9.97-.96.56-.06,1.14.14,1.22.75.08.62-.45.91-1,1-.55.09-1.12-.17-1.19-.79h0ZM10.68,14.35l.02-.46-2.19-.2,2.27-.57.04-.42-2.1-1.25,2.27.44.12-.45-2.92-.58-.14.68,2.12,1.26h0s-2.39.54-2.39.54l-.04.78,2.94.23h0ZM11.25,11.09l.17-.48-2.77-1.03-.17.48,2.77,1.03h0ZM9.23,9.29l.43-.82,2.11,1.31.24-.45-2.1-1.31.45-.82-.37-.23-1.17,2.13.41.18h0ZM12.53,8.46l1.35-1.59-.3-.31-1.03,1.23-.67-.59.91-1.12-.29-.29-.95,1.12-.58-.53,1.02-1.17-.31-.33-1.36,1.61,2.2,1.96h0ZM15.45,5.62l.43-.27-1.55-2.51-.43.27,1.55,2.5h0ZM16.28,5.12l.42-.2-.86-1.96h.01s1.96,1.5,1.96,1.5l.51-.15-.9-2.81-.48.14.65,2.09h-.02s-1.99-1.55-1.99-1.55l-.49.25,1.19,2.7h0ZM17.88,1.85l.86-.14.38,2.39.5-.08-.38-2.4.9-.16-.05-.46-2.34.4.12.45h0ZM20.62,3.93l2.11.08v-.44s-1.6-.07-1.6-.07l.03-.89,1.46.03v-.41s-1.45-.04-1.45-.04v-.79s1.58.08,1.58.08v-.44s-2.06-.09-2.06-.09l-.06,2.97h0ZM24.18,1.73l.8.22c.25.07.44.25.33.6-.09.29-.27.39-.57.31l-.83-.23.27-.9h0ZM23.01,4.05l.46.1.33-1.16.75.21c.45.12.46.38.31.9-.04.14-.08.3-.04.44l.51.21c-.07-.14-.02-.53.07-.85.13-.44-.05-.63-.22-.71h0c.1-.01.48-.04.63-.58.14-.47-.07-.89-.68-1.06l-1.34-.37-.79,2.86h0ZM25.54,4.84l.45.21,1-1.87h.01s.16,2.58.16,2.58l.42.31,1.58-2.48-.4-.32-1.18,1.84-.15-2.62-.49-.24-1.39,2.61h0ZM30.39,5.3h0s0,0,0,0l-.59,1.26-.62-.64,1.2-.62h0ZM27.68,6.15l.41.34.73-.38.81.83-.35.8.34.42,1.31-3.02-.39-.38-2.85,1.39h0ZM31.34,6.29l.48.7-2.06,1.38.28.42,2.06-1.38.52.76.38-.22-1.31-1.94-.35.27h0ZM30.55,9.66l.21.46,2.67-1.26-.21-.46-2.67,1.26h0ZM34.2,10.86c-.23-.83-1.04-1.17-1.84-.91-.78.26-1.31.95-1.09,1.79.22.82,1.01,1.1,1.81.88.81-.22,1.34-.94,1.11-1.76h0ZM33.81,10.99c.17.58-.31,1.03-.85,1.17-.54.14-1.12.05-1.28-.54-.16-.6.31-1.02.84-1.18.53-.16,1.12-.04,1.29.56h0ZM31.63,13.26l.03.48,2.15-.12h0s-2.14,1.43-2.14,1.43l-.03.54,2.92.25.05-.55-2.19-.15v-.03l2.21-1.43-.04-.57-2.96.15h0ZM33.67,17.83h0s0,.01,0,.01l-1.38.03.25-.85,1.14.8h0ZM31.6,15.83l-.08.52.68.44-.33,1.11-.8.05-.18.5,3.18-.22.15-.52-2.62-1.89h0ZM30.79,18.68l-.96,1.73.38.21.71-1.29,2.21,1.23.25-.44-2.59-1.44h0Z"/>
          <g>
            <polygon class="cls-3" points="27.79 26.16 29.5 24.99 29.26 24.62 27.96 25.52 27.47 24.8 28.65 23.97 28.42 23.62 27.24 24.45 26.8 23.78 28.09 22.89 27.84 22.52 26.14 23.68 27.79 26.16 27.79 26.16"/>
            <polygon class="cls-3" points="25.58 27.16 26.1 26.97 25.93 23.78 25.47 23.99 25.64 26.49 25.63 26.49 24.09 24.49 23.6 24.64 25.58 27.16 25.58 27.16"/>
            <polygon class="cls-3" points="21.82 27.85 23.89 27.6 23.8 27.18 22.25 27.36 22.15 26.47 23.5 26.31 23.42 25.9 22.08 26.06 21.99 25.26 23.49 25.11 23.4 24.67 21.49 24.9 21.82 27.85 21.82 27.85"/>
            <polygon class="cls-3" points="15.46 26.58 17.42 27.31 17.53 26.89 16.08 26.35 16.38 25.51 17.68 26.01 17.79 25.62 16.51 25.12 16.78 24.35 18.17 24.92 18.29 24.51 16.47 23.79 15.46 26.58 15.46 26.58"/>
            <path class="cls-3" d="M15.5,24.86l-1.03-.65-.22.31.67.43c-.28.4-.73.49-1.16.19-.51-.36-.41-.98-.1-1.43.31-.45.82-.73,1.33-.37.3.21.47.56.3.9l.43.25c.3-.58.03-1.12-.5-1.48-.72-.5-1.53-.26-1.99.42-.46.68-.43,1.56.29,2.06.29.2.57.24.96.15l-.07.41.27.16.8-1.34h0Z"/>
            <polygon class="cls-3" points="18.24 27.53 18.72 27.63 19.11 25.48 19.12 25.48 20.29 27.83 20.83 27.85 20.97 24.9 20.51 24.89 20.42 27.06 20.41 27.05 19.26 24.72 18.74 24.62 18.24 27.53 18.24 27.53"/>
          </g>
        </g>
        <g>
          <path class="cls-1" d="M21.19.21c7.82,0,14.19,6.38,14.19,14.19s-6.38,14.19-14.19,14.19-14.19-6.38-14.19-14.19S13.37.21,21.19.21h0Z"/>
          <path class="cls-1" d="M21.19,4.66c5.37,0,9.74,4.38,9.74,9.74s-4.38,9.74-9.74,9.74-9.74-4.38-9.74-9.74,4.38-9.74,9.74-9.74h0Z"/>
        </g>
        <polygon class="cls-2" points="19.12 12.34 19.12 7.38 23.25 7.38 23.25 12.34 28.22 12.34 28.22 16.47 23.25 16.47 23.25 21.43 19.12 21.43 19.12 16.47 14.16 16.47 14.16 12.34 19.12 12.34 19.12 12.34"/>
      </g>
      <g>
        <path class="cls-3" d="M0,36.07h1.78v13.35H0v-13.35Z"/>
        <path class="cls-3" d="M14.16,40.09c-.37-1.89-1.89-2.84-3.74-2.84-3.18,0-4.53,2.62-4.53,5.4,0,3.05,1.35,5.59,4.54,5.59,2.34,0,3.68-1.65,3.85-3.85h1.78c-.34,3.33-2.41,5.35-5.78,5.35-4.15,0-6.17-3.07-6.17-6.96s2.21-7.03,6.32-7.03c2.79,0,5.09,1.5,5.5,4.34h-1.78Z"/>
        <path class="cls-3" d="M20.05,42.23v-4.66h4.41c1.66,0,2.38.97,2.38,2.28,0,1.95-1.42,2.38-3.09,2.38h-3.7ZM18.27,49.43h1.78v-5.7h4.34c1.72,0,2.04,1.1,2.23,2.41.26,1.31-.02,2.75.49,3.29h1.98c-.75-.92-.67-2.38-.79-3.68-.13-1.31-.45-2.45-2-2.75v-.04c1.61-.45,2.32-1.78,2.32-3.39,0-2.13-1.55-3.5-4.06-3.5h-6.28v13.35Z"/>
        <path class="cls-3" d="M40.47,40.09c-.37-1.89-1.89-2.84-3.74-2.84-3.18,0-4.53,2.62-4.53,5.4,0,3.05,1.35,5.59,4.55,5.59,2.34,0,3.68-1.65,3.85-3.85h1.78c-.34,3.33-2.41,5.35-5.78,5.35-4.15,0-6.17-3.07-6.17-6.96s2.21-7.03,6.32-7.03c2.79,0,5.09,1.5,5.5,4.34h-1.78Z"/>
      </g>
    </g>
  </g>
</svg>